<svg width="92" height="15" viewBox="0 0 92 15" fill="none" xmlns="http://www.w3.org/2000/svg">
<path d="M0.00178654 11.1729H2.72028V7.34379C2.72028 4.97069 3.87676 3.91366 6.23021 3.91366V1.00282C3.99884 1.00282 2.96384 2.29924 2.67979 3.11628V1.20172H0L0.00178654 11.1729ZM12.8844 11.3724C14.2227 11.3796 15.5344 10.9986 16.6605 10.2755L15.6434 8.3633C14.8225 8.87611 13.8726 9.14462 12.9047 9.13746C12.2696 9.18899 11.6369 9.01252 11.1201 8.63971C10.6033 8.2669 10.2363 7.72216 10.0849 7.1032H17.449C17.4864 6.78555 17.5063 6.46607 17.5085 6.14622C17.5246 5.48424 17.4096 4.82562 17.1702 4.20824C16.9308 3.59085 16.5717 3.02689 16.1136 2.54878C15.6555 2.07067 15.1073 1.68784 14.5007 1.42233C13.8941 1.15681 13.241 1.01383 12.5789 1.00163C11.8915 0.989569 11.2085 1.11491 10.5701 1.37031C9.93175 1.6257 9.3508 2.00601 8.86135 2.48891C8.3719 2.97181 7.98381 3.54759 7.71985 4.18247C7.45588 4.81735 7.32135 5.49856 7.32416 6.18612C7.32535 9.4775 9.92236 11.3718 12.8844 11.3718V11.3724ZM10.0438 5.32978C10.1454 4.74955 10.4462 4.22293 10.8944 3.84071C11.3426 3.45849 11.9101 3.24462 12.4991 3.23597C13.0932 3.22584 13.6705 3.43304 14.1225 3.81861C14.5745 4.20418 14.8701 4.74157 14.9538 5.32978H10.0438ZM19.2951 11.1729H22.0136V6.12776C22.0136 4.61219 22.9265 3.53551 24.286 3.53551C25.6658 3.53551 26.0511 4.31325 26.0511 5.76867V11.1729H28.7696V5.42983C28.7696 2.69763 27.8364 1.00282 25.1584 1.00282C24.5396 0.97901 23.9243 1.10637 23.3657 1.37387C22.8072 1.64137 22.3222 2.04095 21.9528 2.53804V1.20172H19.2951V11.1729ZM34.9772 11.3724C35.5761 11.3953 36.1724 11.2815 36.7208 11.0396C37.2692 10.7978 37.7553 10.4342 38.1423 9.97653V11.1729H40.8001V1.20231H38.1423V2.41894C37.7552 1.96008 37.2696 1.59448 36.7215 1.34939C36.1735 1.10431 35.5773 0.986042 34.9772 1.00341C32.1783 1.00341 30.3918 3.31637 30.3918 6.18791C30.3918 9.05945 32.1777 11.3718 34.9778 11.3718L34.9772 11.3724ZM35.6674 8.89926C35.3204 8.89829 34.9774 8.82595 34.6596 8.68674C34.3418 8.54753 34.0561 8.34442 33.8202 8.09006C33.5842 7.83569 33.4032 7.53551 33.2882 7.20817C33.1732 6.88083 33.1269 6.53334 33.1519 6.18731C33.1285 5.84165 33.1761 5.49486 33.2917 5.16825C33.4072 4.84165 33.5884 4.54213 33.824 4.28813C34.0596 4.03412 34.3447 3.83098 34.6617 3.69121C34.9787 3.55144 35.3209 3.47799 35.6674 3.47537C37.0674 3.47537 38.0816 4.63184 38.0816 6.18731C38.0816 7.78268 37.0674 8.89926 35.6674 8.89926ZM42.8694 14.0444H45.5879V10.0361C45.9709 10.4679 46.4433 10.811 46.9723 11.0417C47.5013 11.2724 48.0743 11.385 48.6512 11.3718C51.4501 11.3718 53.2766 9.05885 53.2766 6.16707C53.2766 3.31577 51.49 1.00222 48.6911 1.00222C48.0808 0.982421 47.4736 1.09721 46.9125 1.33845C46.3515 1.5797 45.8505 1.94147 45.445 2.39809V1.20172H42.8694V14.0444ZM47.9843 8.89926C46.5842 8.89926 45.5701 7.76243 45.5701 6.18731C45.5701 4.59195 46.6045 3.47537 47.9843 3.47537C48.3315 3.47499 48.6751 3.54644 48.9934 3.68523C49.3116 3.82401 49.5978 4.02714 49.8338 4.28183C50.0698 4.53652 50.2506 4.83728 50.3648 5.1652C50.479 5.49312 50.5241 5.84111 50.4973 6.18731C50.5241 6.53351 50.479 6.88151 50.3648 7.20943C50.2506 7.53735 50.0698 7.8381 49.8338 8.0928C49.5978 8.34749 49.3116 8.55061 48.9934 8.6894C48.6751 8.82818 48.3315 8.89963 47.9843 8.89926ZM59.3228 11.3718C59.9217 11.3947 60.5179 11.2809 61.0663 11.039C61.6147 10.7972 62.1009 10.4336 62.4879 9.97594V11.1729H65.1456V1.20231H62.4879V2.41894C62.1008 1.96008 61.6151 1.59448 61.0671 1.34939C60.5191 1.10431 59.9228 0.986042 59.3228 1.00341C56.5239 1.00341 54.7373 3.31637 54.7373 6.18791C54.7373 9.05945 56.5227 11.3718 59.3228 11.3718ZM60.0135 8.89926C59.6666 8.89829 59.3236 8.82595 59.0058 8.68674C58.688 8.54753 58.4023 8.34442 58.1663 8.09006C57.9304 7.83569 57.7493 7.53551 57.6344 7.20817C57.5194 6.88083 57.473 6.53334 57.4981 6.18731C57.4747 5.84165 57.5223 5.49486 57.6378 5.16825C57.7534 4.84165 57.9346 4.54213 58.1702 4.28813C58.4058 4.03412 58.6908 3.83098 59.0078 3.69121C59.3249 3.55144 59.6671 3.47799 60.0135 3.47537C61.4136 3.47537 62.4277 4.63184 62.4277 6.18731C62.4265 7.78268 61.4124 8.89926 60.0135 8.89926ZM68.2494 14.104C69.5071 14.104 71.4145 13.9045 72.5097 11.4516L77.0135 1.20172H74.295L72.4489 5.80797C72.2256 6.38621 71.7998 7.56294 71.7998 7.56294C71.7998 7.56294 71.4348 6.56606 71.1305 5.86812L69.0813 1.20172H66.3224L70.5624 10.0355L70.3391 10.4744C69.974 11.2521 69.5053 11.6708 68.2494 11.6708V14.104Z" fill="white"/>
<path d="M90.963 8.05511L79.1976 8.05511" stroke="white" stroke-width="1.78653"/>
<path d="M90.963 1.00001L79.1976 4.13715" stroke="white" stroke-width="1.78653"/>
</svg>
