<svg width="45" height="40" viewBox="0 0 45 40" fill="none" xmlns="http://www.w3.org/2000/svg">
<rect x="45" y="40" width="44.2975" height="40" rx="9.06992" transform="rotate(-180 45 40)" fill="#EED186"/>
<path d="M22.686 39.8337L22.686 32.3957M44.8347 32.2304L1.03307 32.2304M22.686 7.93292L22.686 0.164325" stroke="#394C9B" stroke-width="0.431901"/>
<path d="M44.8347 8.09897L1.03307 8.09896" stroke="#394C9B" stroke-width="0.431901"/>
<path d="M15.0826 16.0337L1.03306 16.0337" stroke="#394C9B" stroke-width="0.431901"/>
<path d="M44.8347 16.1987L30.4546 16.1987M44.8347 24.1326L29.7934 24.1326M16.0744 24.1326L1.19836 24.1326" stroke="#394C9B" stroke-width="0.431901"/>
<path d="M28.3058 32.2316C30.124 30.0828 31.7769 24.9588 27.6447 21.6531C28.4711 20.8267 30.4546 18.6779 30.4546 16.1985C30.4546 12.8927 27.9753 8.26463 22.8513 8.26463C17.7273 8.26463 15.0827 11.4051 15.0827 16.0332C15.0827 19.6696 17.7273 21.6531 17.7273 21.6531C17.7273 21.6531 16.405 22.6448 15.9091 24.1324" stroke="#394C9B" stroke-width="0.431901"/>
</svg>
